<svg class="drop-shadow-2xl animate-slide-in-bounce-svg" viewBox="0 0 120 120" fill="none" xmlns="http://www.w3.org/2000/svg">
    <rect width="120" height="120" rx="25" fill="#B80054"/>
    <path d="M34.6304 67.152C33.5917 67.152 32.6544 66.9303 31.8184 66.487C30.9951 66.0437 30.3427 65.4103 29.8614 64.587C29.3927 63.7637 29.1584 62.801 29.1584 61.699C29.1584 60.6097 29.3991 59.6533 29.8804 58.83C30.3617 57.994 31.0204 57.3543 31.8564 56.911C32.6924 56.4677 33.6297 56.246 34.6684 56.246C35.7071 56.246 36.6444 56.4677 37.4804 56.911C38.3164 57.3543 38.9751 57.994 39.4564 58.83C39.9377 59.6533 40.1784 60.6097 40.1784 61.699C40.1784 62.7883 39.9314 63.751 39.4374 64.587C38.9561 65.4103 38.2911 66.0437 37.4424 66.487C36.6064 66.9303 35.6691 67.152 34.6304 67.152ZM34.6304 64.34C35.2511 64.34 35.7767 64.112 36.2074 63.656C36.6507 63.2 36.8724 62.5477 36.8724 61.699C36.8724 60.8503 36.6571 60.198 36.2264 59.742C35.8084 59.286 35.2891 59.058 34.6684 59.058C34.0351 59.058 33.5094 59.286 33.0914 59.742C32.6734 60.1853 32.4644 60.8377 32.4644 61.699C32.4644 62.5477 32.6671 63.2 33.0724 63.656C33.4904 64.112 34.0097 64.34 34.6304 64.34ZM44.619 57.899C44.9357 57.405 45.3727 57.006 45.93 56.702C46.4874 56.398 47.1397 56.246 47.887 56.246C48.761 56.246 49.5527 56.4677 50.262 56.911C50.9714 57.3543 51.5287 57.9877 51.934 58.811C52.352 59.6343 52.561 60.5907 52.561 61.68C52.561 62.7693 52.352 63.732 51.934 64.568C51.5287 65.3913 50.9714 66.031 50.262 66.487C49.5527 66.9303 48.761 67.152 47.887 67.152C47.1524 67.152 46.5 67 45.93 66.696C45.3727 66.392 44.9357 65.9993 44.619 65.518V72.054H41.37V56.398H44.619V57.899ZM49.255 61.68C49.255 60.8693 49.027 60.236 48.571 59.78C48.1277 59.3113 47.5767 59.077 46.918 59.077C46.272 59.077 45.721 59.3113 45.265 59.78C44.8217 60.2487 44.6 60.8883 44.6 61.699C44.6 62.5097 44.8217 63.1493 45.265 63.618C45.721 64.0867 46.272 64.321 46.918 64.321C47.564 64.321 48.115 64.0867 48.571 63.618C49.027 63.1367 49.255 62.4907 49.255 61.68ZM64.5636 56.398L57.9135 72.035H54.4175L56.8495 66.639L52.5365 56.398H56.1655L58.6165 63.029L61.0486 56.398H64.5636ZM68.4554 52.94V67H65.2064V52.94H68.4554ZM80.272 61.528C80.272 61.832 80.253 62.1487 80.215 62.478H72.862C72.9126 63.1367 73.1216 63.6433 73.489 63.998C73.869 64.34 74.3313 64.511 74.876 64.511C75.6866 64.511 76.2503 64.169 76.567 63.485H80.025C79.8476 64.1817 79.5246 64.8087 79.056 65.366C78.6 65.9233 78.0236 66.3603 77.327 66.677C76.6303 66.9937 75.8513 67.152 74.99 67.152C73.9513 67.152 73.0266 66.9303 72.216 66.487C71.4053 66.0437 70.772 65.4103 70.316 64.587C69.86 63.7637 69.632 62.801 69.632 61.699C69.632 60.597 69.8536 59.6343 70.297 58.811C70.753 57.9877 71.3863 57.3543 72.197 56.911C73.0076 56.4677 73.9386 56.246 74.99 56.246C76.016 56.246 76.928 56.4613 77.726 56.892C78.524 57.3227 79.1446 57.937 79.588 58.735C80.044 59.533 80.272 60.464 80.272 61.528ZM76.947 60.673C76.947 60.1157 76.757 59.6723 76.377 59.343C75.997 59.0137 75.522 58.849 74.952 58.849C74.4073 58.849 73.945 59.0073 73.565 59.324C73.1976 59.6407 72.9696 60.0903 72.881 60.673H76.947ZM86.28 67.152C85.2413 67.152 84.304 66.9303 83.468 66.487C82.6446 66.0437 81.9923 65.4103 81.511 64.587C81.0423 63.7637 80.808 62.801 80.808 61.699C80.808 60.6097 81.0486 59.6533 81.53 58.83C82.0113 57.994 82.67 57.3543 83.506 56.911C84.342 56.4677 85.2793 56.246 86.318 56.246C87.3566 56.246 88.294 56.4677 89.13 56.911C89.966 57.3543 90.6246 57.994 91.106 58.83C91.5873 59.6533 91.828 60.6097 91.828 61.699C91.828 62.7883 91.581 63.751 91.087 64.587C90.6056 65.4103 89.9406 66.0437 89.092 66.487C88.256 66.9303 87.3186 67.152 86.28 67.152ZM86.28 64.34C86.9006 64.34 87.4263 64.112 87.857 63.656C88.3003 63.2 88.522 62.5477 88.522 61.699C88.522 60.8503 88.3066 60.198 87.876 59.742C87.458 59.286 86.9386 59.058 86.318 59.058C85.6846 59.058 85.159 59.286 84.741 59.742C84.323 60.1853 84.114 60.8377 84.114 61.699C84.114 62.5477 84.3166 63.2 84.722 63.656C85.14 64.112 85.6593 64.34 86.28 64.34Z" fill="white"/>
</svg>  